<?xml version="1.0" encoding="UTF-8" standalone="no"?>
<!DOCTYPE svg PUBLIC "-//W3C//DTD SVG 1.1//EN"
 "http://www.w3.org/Graphics/SVG/1.1/DTD/svg11.dtd">
<!-- Generated by graphviz version 2.38.0 (20140413.2041)
 -->
<!-- Title: G Pages: 1 -->
<svg width="656pt" height="1374pt"
 viewBox="0.00 0.00 656.00 1374.00" xmlns="http://www.w3.org/2000/svg" xmlns:xlink="http://www.w3.org/1999/xlink">
<g id="graph0" class="graph" transform="scale(1 1) rotate(0) translate(4 1370)">
<title>G</title>
<polygon fill="white" stroke="none" points="-4,4 -4,-1370 652,-1370 652,4 -4,4"/>
<g id="clust1" class="cluster"><title>cluster_</title>
<polygon fill="none" stroke="blue" points="8,-8 8,-1358 640,-1358 640,-8 8,-8"/>
</g>
<g id="clust19" class="cluster"><title>cluster_prepare</title>
<polygon fill="none" stroke="grey" stroke-dasharray="5,2" points="341,-1110 341,-1256 473,-1256 473,-1110 341,-1110"/>
<text text-anchor="middle" x="369.983" y="-1240.8" font-family="Times,serif" font-size="14.00">prepare</text>
</g>
<g id="clust20" class="cluster"><title>cluster_rootmerge</title>
<polygon fill="none" stroke="grey" stroke-dasharray="5,2" points="278,-16 278,-162 402,-162 402,-16 278,-16"/>
<text text-anchor="middle" x="314.643" y="-146.8" font-family="Times,serif" font-size="14.00">rootmerge</text>
</g>
<g id="clust3" class="cluster"><title>cluster_grid</title>
<polygon fill="none" stroke="grey" stroke-dasharray="5,2" points="324,-956 324,-1102 434,-1102 434,-956 324,-956"/>
<text text-anchor="middle" x="343.276" y="-1086.8" font-family="Times,serif" font-size="14.00">grid</text>
</g>
<g id="clust4" class="cluster"><title>cluster_subchain</title>
<polygon fill="none" stroke="grey" stroke-dasharray="5,2" points="16,-170 16,-948 632,-948 632,-170 16,-170"/>
<text text-anchor="middle" x="48.8828" y="-932.8" font-family="Times,serif" font-size="14.00">subchain</text>
</g>
<g id="clust12" class="cluster"><title>cluster_subchain1</title>
<polygon fill="none" stroke="blue" points="328,-178 328,-918 624,-918 624,-178 328,-178"/>
<text text-anchor="middle" x="373.707" y="-902.8" font-family="Times,serif" font-size="14.00">[subchain][1]</text>
</g>
<g id="clust13" class="cluster"><title>cluster_subchain_1_madevent</title>
<polygon fill="none" stroke="grey" stroke-dasharray="5,2" points="435,-648 435,-794 537,-794 537,-648 435,-648"/>
<text text-anchor="middle" x="470.21" y="-778.8" font-family="Times,serif" font-size="14.00">madevent</text>
</g>
<g id="clust14" class="cluster"><title>cluster_subchain_1_analysis</title>
<polygon fill="none" stroke="grey" stroke-dasharray="5,2" points="370,-186 370,-332 530,-332 530,-186 370,-186"/>
<text text-anchor="middle" x="400.552" y="-316.8" font-family="Times,serif" font-size="14.00">analysis</text>
</g>
<g id="clust17" class="cluster"><title>cluster_subchain_1_delphes</title>
<polygon fill="none" stroke="grey" stroke-dasharray="5,2" points="401,-340 401,-486 549,-486 549,-340 401,-340"/>
<text text-anchor="middle" x="430.383" y="-470.8" font-family="Times,serif" font-size="14.00">delphes</text>
</g>
<g id="clust18" class="cluster"><title>cluster_subchain_1_pythia</title>
<polygon fill="none" stroke="grey" stroke-dasharray="5,2" points="422,-494 422,-640 540,-640 540,-494 422,-494"/>
<text text-anchor="middle" x="447.497" y="-624.8" font-family="Times,serif" font-size="14.00">pythia</text>
</g>
<g id="clust5" class="cluster"><title>cluster_subchain0</title>
<polygon fill="none" stroke="blue" points="24,-178 24,-918 320,-918 320,-178 24,-178"/>
<text text-anchor="middle" x="69.707" y="-902.8" font-family="Times,serif" font-size="14.00">[subchain][0]</text>
</g>
<g id="clust6" class="cluster"><title>cluster_subchain_0_madevent</title>
<polygon fill="none" stroke="grey" stroke-dasharray="5,2" points="149,-648 149,-794 251,-794 251,-648 149,-648"/>
<text text-anchor="middle" x="184.21" y="-778.8" font-family="Times,serif" font-size="14.00">madevent</text>
</g>
<g id="clust7" class="cluster"><title>cluster_subchain_0_analysis</title>
<polygon fill="none" stroke="grey" stroke-dasharray="5,2" points="151,-186 151,-332 311,-332 311,-186 151,-186"/>
<text text-anchor="middle" x="181.552" y="-316.8" font-family="Times,serif" font-size="14.00">analysis</text>
</g>
<g id="clust10" class="cluster"><title>cluster_subchain_0_delphes</title>
<polygon fill="none" stroke="grey" stroke-dasharray="5,2" points="145,-340 145,-486 293,-486 293,-340 145,-340"/>
<text text-anchor="middle" x="174.383" y="-470.8" font-family="Times,serif" font-size="14.00">delphes</text>
</g>
<g id="clust11" class="cluster"><title>cluster_subchain_0_pythia</title>
<polygon fill="none" stroke="grey" stroke-dasharray="5,2" points="144,-494 144,-640 262,-640 262,-494 144,-494"/>
<text text-anchor="middle" x="169.497" y="-624.8" font-family="Times,serif" font-size="14.00">pythia</text>
</g>
<!-- 561ba26c&#45;a04c&#45;4802&#45;ab3e&#45;0f20a8801ff7 -->
<g id="node1" class="node"><title>561ba26c&#45;a04c&#45;4802&#45;ab3e&#45;0f20a8801ff7</title>
<polygon fill="none" stroke="blue" points="322,-1350 315,-1343 322,-1336 329,-1343 322,-1350"/>
</g>
<!-- 561ba26c&#45;a04c&#45;4802&#45;ab3e&#45;0f20a8801ff7__kAzz -->
<g id="node2" class="node"><title>561ba26c&#45;a04c&#45;4802&#45;ab3e&#45;0f20a8801ff7__kAzz</title>
<ellipse fill="none" stroke="red" cx="597" cy="-1282" rx="34.8111" ry="18"/>
<text text-anchor="middle" x="597" y="-1277.8" font-family="Times,serif" font-size="14.00">[kAzz]</text>
</g>
<!-- 561ba26c&#45;a04c&#45;4802&#45;ab3e&#45;0f20a8801ff7&#45;&gt;561ba26c&#45;a04c&#45;4802&#45;ab3e&#45;0f20a8801ff7__kAzz -->
<g id="edge1" class="edge"><title>561ba26c&#45;a04c&#45;4802&#45;ab3e&#45;0f20a8801ff7&#45;&gt;561ba26c&#45;a04c&#45;4802&#45;ab3e&#45;0f20a8801ff7__kAzz</title>
<path fill="none" stroke="black" d="M327.486,-1341.41C353.336,-1338.56 465.433,-1325.26 554,-1300 556.432,-1299.31 558.916,-1298.53 561.403,-1297.69"/>
<polygon fill="black" stroke="black" points="562.685,-1300.95 570.905,-1294.27 560.311,-1294.36 562.685,-1300.95"/>
</g>
<!-- 561ba26c&#45;a04c&#45;4802&#45;ab3e&#45;0f20a8801ff7__nevents -->
<g id="node3" class="node"><title>561ba26c&#45;a04c&#45;4802&#45;ab3e&#45;0f20a8801ff7__nevents</title>
<ellipse fill="none" stroke="red" cx="183" cy="-982" rx="43.0215" ry="18"/>
<text text-anchor="middle" x="183" y="-977.8" font-family="Times,serif" font-size="14.00">[nevents]</text>
</g>
<!-- 561ba26c&#45;a04c&#45;4802&#45;ab3e&#45;0f20a8801ff7&#45;&gt;561ba26c&#45;a04c&#45;4802&#45;ab3e&#45;0f20a8801ff7__nevents -->
<g id="edge2" class="edge"><title>561ba26c&#45;a04c&#45;4802&#45;ab3e&#45;0f20a8801ff7&#45;&gt;561ba26c&#45;a04c&#45;4802&#45;ab3e&#45;0f20a8801ff7__nevents</title>
<path fill="none" stroke="black" d="M316.595,-1341.36C291.48,-1338.25 186.535,-1323.96 166,-1300 139.521,-1269.11 156,-1249.69 156,-1209 156,-1209 156,-1209 156,-1135 156,-1090.65 167.283,-1040.12 175.261,-1009.93"/>
<polygon fill="black" stroke="black" points="178.675,-1010.72 177.922,-1000.15 171.92,-1008.88 178.675,-1010.72"/>
</g>
<!-- 561ba26c&#45;a04c&#45;4802&#45;ab3e&#45;0f20a8801ff7__seeds_0 -->
<g id="node4" class="node"><title>561ba26c&#45;a04c&#45;4802&#45;ab3e&#45;0f20a8801ff7__seeds_0</title>
<ellipse fill="none" stroke="red" cx="92" cy="-1282" rx="45.4269" ry="18"/>
<text text-anchor="middle" x="92" y="-1277.8" font-family="Times,serif" font-size="14.00">[seeds][0]</text>
</g>
<!-- 561ba26c&#45;a04c&#45;4802&#45;ab3e&#45;0f20a8801ff7&#45;&gt;561ba26c&#45;a04c&#45;4802&#45;ab3e&#45;0f20a8801ff7__seeds_0 -->
<g id="edge3" class="edge"><title>561ba26c&#45;a04c&#45;4802&#45;ab3e&#45;0f20a8801ff7&#45;&gt;561ba26c&#45;a04c&#45;4802&#45;ab3e&#45;0f20a8801ff7__seeds_0</title>
<path fill="none" stroke="black" d="M316.945,-1340.84C296.288,-1336.06 216.277,-1317.41 151,-1300 146.594,-1298.82 142.012,-1297.57 137.438,-1296.29"/>
<polygon fill="black" stroke="black" points="138.079,-1292.83 127.504,-1293.48 136.173,-1299.57 138.079,-1292.83"/>
</g>
<!-- 561ba26c&#45;a04c&#45;4802&#45;ab3e&#45;0f20a8801ff7__seeds_1 -->
<g id="node5" class="node"><title>561ba26c&#45;a04c&#45;4802&#45;ab3e&#45;0f20a8801ff7__seeds_1</title>
<ellipse fill="none" stroke="red" cx="220" cy="-1282" rx="45.4269" ry="18"/>
<text text-anchor="middle" x="220" y="-1277.8" font-family="Times,serif" font-size="14.00">[seeds][1]</text>
</g>
<!-- 561ba26c&#45;a04c&#45;4802&#45;ab3e&#45;0f20a8801ff7&#45;&gt;561ba26c&#45;a04c&#45;4802&#45;ab3e&#45;0f20a8801ff7__seeds_1 -->
<g id="edge4" class="edge"><title>561ba26c&#45;a04c&#45;4802&#45;ab3e&#45;0f20a8801ff7&#45;&gt;561ba26c&#45;a04c&#45;4802&#45;ab3e&#45;0f20a8801ff7__seeds_1</title>
<path fill="none" stroke="black" d="M318.126,-1339.76C307.607,-1333.67 277.687,-1316.37 253.626,-1302.45"/>
<polygon fill="black" stroke="black" points="255.153,-1299.29 244.744,-1297.31 251.648,-1305.35 255.153,-1299.29"/>
</g>
<!-- 561ba26c&#45;a04c&#45;4802&#45;ab3e&#45;0f20a8801ff7__kAww -->
<g id="node6" class="node"><title>561ba26c&#45;a04c&#45;4802&#45;ab3e&#45;0f20a8801ff7__kAww</title>
<ellipse fill="none" stroke="red" cx="322" cy="-1282" rx="38.5335" ry="18"/>
<text text-anchor="middle" x="322" y="-1277.8" font-family="Times,serif" font-size="14.00">[kAww]</text>
</g>
<!-- 561ba26c&#45;a04c&#45;4802&#45;ab3e&#45;0f20a8801ff7&#45;&gt;561ba26c&#45;a04c&#45;4802&#45;ab3e&#45;0f20a8801ff7__kAww -->
<g id="edge5" class="edge"><title>561ba26c&#45;a04c&#45;4802&#45;ab3e&#45;0f20a8801ff7&#45;&gt;561ba26c&#45;a04c&#45;4802&#45;ab3e&#45;0f20a8801ff7__kAww</title>
<path fill="none" stroke="black" d="M322,-1335.69C322,-1329.49 322,-1319.59 322,-1310.05"/>
<polygon fill="black" stroke="black" points="325.5,-1310.02 322,-1300.02 318.5,-1310.02 325.5,-1310.02"/>
</g>
<!-- 561ba26c&#45;a04c&#45;4802&#45;ab3e&#45;0f20a8801ff7__kHww -->
<g id="node7" class="node"><title>561ba26c&#45;a04c&#45;4802&#45;ab3e&#45;0f20a8801ff7__kHww</title>
<ellipse fill="none" stroke="red" cx="418" cy="-1282" rx="39.6558" ry="18"/>
<text text-anchor="middle" x="418" y="-1277.8" font-family="Times,serif" font-size="14.00">[kHww]</text>
</g>
<!-- 561ba26c&#45;a04c&#45;4802&#45;ab3e&#45;0f20a8801ff7&#45;&gt;561ba26c&#45;a04c&#45;4802&#45;ab3e&#45;0f20a8801ff7__kHww -->
<g id="edge6" class="edge"><title>561ba26c&#45;a04c&#45;4802&#45;ab3e&#45;0f20a8801ff7&#45;&gt;561ba26c&#45;a04c&#45;4802&#45;ab3e&#45;0f20a8801ff7__kHww</title>
<path fill="none" stroke="black" d="M326.125,-1339.46C336.517,-1333.08 364.541,-1315.86 386.929,-1302.1"/>
<polygon fill="black" stroke="black" points="388.805,-1305.05 395.492,-1296.83 385.14,-1299.09 388.805,-1305.05"/>
</g>
<!-- 561ba26c&#45;a04c&#45;4802&#45;ab3e&#45;0f20a8801ff7__kHzz -->
<g id="node8" class="node"><title>561ba26c&#45;a04c&#45;4802&#45;ab3e&#45;0f20a8801ff7__kHzz</title>
<ellipse fill="none" stroke="red" cx="510" cy="-1282" rx="34.8111" ry="18"/>
<text text-anchor="middle" x="510" y="-1277.8" font-family="Times,serif" font-size="14.00">[kHzz]</text>
</g>
<!-- 561ba26c&#45;a04c&#45;4802&#45;ab3e&#45;0f20a8801ff7&#45;&gt;561ba26c&#45;a04c&#45;4802&#45;ab3e&#45;0f20a8801ff7__kHzz -->
<g id="edge7" class="edge"><title>561ba26c&#45;a04c&#45;4802&#45;ab3e&#45;0f20a8801ff7&#45;&gt;561ba26c&#45;a04c&#45;4802&#45;ab3e&#45;0f20a8801ff7__kHzz</title>
<path fill="none" stroke="black" d="M326.808,-1340.78C345.185,-1336.1 412.686,-1318.56 467,-1300 469.393,-1299.18 471.848,-1298.31 474.314,-1297.41"/>
<polygon fill="black" stroke="black" points="475.654,-1300.64 483.767,-1293.83 473.176,-1294.09 475.654,-1300.64"/>
</g>
<!-- 94cd0bd6&#45;3f51&#45;4b86&#45;be12&#45;ca1e87e07917 -->
<g id="node35" class="node"><title>94cd0bd6&#45;3f51&#45;4b86&#45;be12&#45;ca1e87e07917</title>
<polygon fill="none" stroke="blue" points="455.291,-1226 380.709,-1226 380.709,-1190 455.291,-1190 455.291,-1226"/>
<text text-anchor="middle" x="418" y="-1203.8" font-family="Times,serif" font-size="14.00">prepare[0]</text>
</g>
<!-- 561ba26c&#45;a04c&#45;4802&#45;ab3e&#45;0f20a8801ff7__kAzz&#45;&gt;94cd0bd6&#45;3f51&#45;4b86&#45;be12&#45;ca1e87e07917 -->
<g id="edge43" class="edge"><title>561ba26c&#45;a04c&#45;4802&#45;ab3e&#45;0f20a8801ff7__kAzz&#45;&gt;94cd0bd6&#45;3f51&#45;4b86&#45;be12&#45;ca1e87e07917</title>
<path fill="none" stroke="black" d="M570.202,-1270.22C542.418,-1259.05 498.433,-1241.35 464.877,-1227.86"/>
<polygon fill="black" stroke="black" points="465.854,-1224.48 455.27,-1223.99 463.241,-1230.97 465.854,-1224.48"/>
</g>
<!-- 06d79dc3&#45;21ca&#45;4380&#45;b759&#45;86f31aa40e79 -->
<g id="node15" class="node"><title>06d79dc3&#45;21ca&#45;4380&#45;b759&#45;86f31aa40e79</title>
<polygon fill="none" stroke="blue" points="183,-888 176,-881 183,-874 190,-881 183,-888"/>
</g>
<!-- 561ba26c&#45;a04c&#45;4802&#45;ab3e&#45;0f20a8801ff7__nevents&#45;&gt;06d79dc3&#45;21ca&#45;4380&#45;b759&#45;86f31aa40e79 -->
<g id="edge30" class="edge"><title>561ba26c&#45;a04c&#45;4802&#45;ab3e&#45;0f20a8801ff7__nevents&#45;&gt;06d79dc3&#45;21ca&#45;4380&#45;b759&#45;86f31aa40e79</title>
<path fill="none" stroke="black" d="M183,-963.756C183,-945.396 183,-916.551 183,-898.486"/>
<polygon fill="black" stroke="black" points="186.5,-898.391 183,-888.391 179.5,-898.391 186.5,-898.391"/>
</g>
<!-- 9ba61a94&#45;9581&#45;4a0a&#45;9e90&#45;e5575d7ab8ab -->
<g id="node27" class="node"><title>9ba61a94&#45;9581&#45;4a0a&#45;9e90&#45;e5575d7ab8ab</title>
<polygon fill="none" stroke="blue" points="379,-888 372,-881 379,-874 386,-881 379,-888"/>
</g>
<!-- 561ba26c&#45;a04c&#45;4802&#45;ab3e&#45;0f20a8801ff7__nevents&#45;&gt;9ba61a94&#45;9581&#45;4a0a&#45;9e90&#45;e5575d7ab8ab -->
<g id="edge33" class="edge"><title>561ba26c&#45;a04c&#45;4802&#45;ab3e&#45;0f20a8801ff7__nevents&#45;&gt;9ba61a94&#45;9581&#45;4a0a&#45;9e90&#45;e5575d7ab8ab</title>
<path fill="none" stroke="black" d="M216.92,-970.731C233.942,-965.821 254.945,-960.129 274,-956 295.994,-951.234 304.44,-959.131 324,-948 346.119,-935.413 363.186,-910.286 372.109,-894.926"/>
<polygon fill="black" stroke="black" points="375.196,-896.576 376.948,-886.127 369.062,-893.203 375.196,-896.576"/>
</g>
<!-- 561ba26c&#45;a04c&#45;4802&#45;ab3e&#45;0f20a8801ff7__seeds_0&#45;&gt;06d79dc3&#45;21ca&#45;4380&#45;b759&#45;86f31aa40e79 -->
<g id="edge32" class="edge"><title>561ba26c&#45;a04c&#45;4802&#45;ab3e&#45;0f20a8801ff7__seeds_0&#45;&gt;06d79dc3&#45;21ca&#45;4380&#45;b759&#45;86f31aa40e79</title>
<path fill="none" stroke="black" d="M94.9635,-1263.77C99.335,-1236.82 107,-1183 107,-1137 107,-1137 107,-1137 107,-1053 107,-1008.59 112.585,-996.414 131,-956 142.109,-931.62 161.509,-906.866 173.214,-893.067"/>
<polygon fill="black" stroke="black" points="175.961,-895.242 179.891,-885.403 170.683,-890.643 175.961,-895.242"/>
</g>
<!-- 561ba26c&#45;a04c&#45;4802&#45;ab3e&#45;0f20a8801ff7__seeds_1&#45;&gt;9ba61a94&#45;9581&#45;4a0a&#45;9e90&#45;e5575d7ab8ab -->
<g id="edge35" class="edge"><title>561ba26c&#45;a04c&#45;4802&#45;ab3e&#45;0f20a8801ff7__seeds_1&#45;&gt;9ba61a94&#45;9581&#45;4a0a&#45;9e90&#45;e5575d7ab8ab</title>
<path fill="none" stroke="black" d="M231.94,-1264.19C249.18,-1238.21 279,-1186.17 279,-1137 279,-1137 279,-1137 279,-1053 279,-1006.2 296.077,-996.228 320,-956 334.466,-931.674 356.176,-906.582 368.833,-892.767"/>
<polygon fill="black" stroke="black" points="371.678,-894.849 375.948,-885.153 366.563,-890.07 371.678,-894.849"/>
</g>
<!-- 561ba26c&#45;a04c&#45;4802&#45;ab3e&#45;0f20a8801ff7__kAww&#45;&gt;94cd0bd6&#45;3f51&#45;4b86&#45;be12&#45;ca1e87e07917 -->
<g id="edge45" class="edge"><title>561ba26c&#45;a04c&#45;4802&#45;ab3e&#45;0f20a8801ff7__kAww&#45;&gt;94cd0bd6&#45;3f51&#45;4b86&#45;be12&#45;ca1e87e07917</title>
<path fill="none" stroke="black" d="M351.551,-1270.34C360.182,-1266.51 369.344,-1261.7 377,-1256 385.164,-1249.92 392.86,-1241.97 399.332,-1234.34"/>
<polygon fill="black" stroke="black" points="402.273,-1236.27 405.837,-1226.29 396.829,-1231.87 402.273,-1236.27"/>
</g>
<!-- 561ba26c&#45;a04c&#45;4802&#45;ab3e&#45;0f20a8801ff7__kHww&#45;&gt;94cd0bd6&#45;3f51&#45;4b86&#45;be12&#45;ca1e87e07917 -->
<g id="edge46" class="edge"><title>561ba26c&#45;a04c&#45;4802&#45;ab3e&#45;0f20a8801ff7__kHww&#45;&gt;94cd0bd6&#45;3f51&#45;4b86&#45;be12&#45;ca1e87e07917</title>
<path fill="none" stroke="black" d="M418,-1263.94C418,-1255.81 418,-1245.88 418,-1236.7"/>
<polygon fill="black" stroke="black" points="421.5,-1236.44 418,-1226.44 414.5,-1236.44 421.5,-1236.44"/>
</g>
<!-- 561ba26c&#45;a04c&#45;4802&#45;ab3e&#45;0f20a8801ff7__kHzz&#45;&gt;94cd0bd6&#45;3f51&#45;4b86&#45;be12&#45;ca1e87e07917 -->
<g id="edge44" class="edge"><title>561ba26c&#45;a04c&#45;4802&#45;ab3e&#45;0f20a8801ff7__kHzz&#45;&gt;94cd0bd6&#45;3f51&#45;4b86&#45;be12&#45;ca1e87e07917</title>
<path fill="none" stroke="black" d="M491.382,-1266.43C478.917,-1256.67 462.235,-1243.62 447.925,-1232.42"/>
<polygon fill="black" stroke="black" points="449.857,-1229.49 439.825,-1226.08 445.543,-1235 449.857,-1229.49"/>
</g>
<!-- 6f5068d9&#45;f081&#45;421b&#45;a7a5&#45;3c85d52f05c1 -->
<g id="node9" class="node"><title>6f5068d9&#45;f081&#45;421b&#45;a7a5&#45;3c85d52f05c1</title>
<polygon fill="none" stroke="blue" points="416.376,-1072 361.624,-1072 361.624,-1036 416.376,-1036 416.376,-1072"/>
<text text-anchor="middle" x="389" y="-1049.8" font-family="Times,serif" font-size="14.00">grid[0]</text>
</g>
<!-- 6f5068d9&#45;f081&#45;421b&#45;a7a5&#45;3c85d52f05c1__gridpack -->
<g id="node10" class="node"><title>6f5068d9&#45;f081&#45;421b&#45;a7a5&#45;3c85d52f05c1__gridpack</title>
<ellipse fill="none" stroke="red" cx="379" cy="-982" rx="46.8719" ry="18"/>
<text text-anchor="middle" x="379" y="-977.8" font-family="Times,serif" font-size="14.00">[gridpack]</text>
</g>
<!-- 6f5068d9&#45;f081&#45;421b&#45;a7a5&#45;3c85d52f05c1&#45;&gt;6f5068d9&#45;f081&#45;421b&#45;a7a5&#45;3c85d52f05c1__gridpack -->
<g id="edge8" class="edge"><title>6f5068d9&#45;f081&#45;421b&#45;a7a5&#45;3c85d52f05c1&#45;&gt;6f5068d9&#45;f081&#45;421b&#45;a7a5&#45;3c85d52f05c1__gridpack</title>
<path fill="none" stroke="black" d="M386.528,-1035.7C385.426,-1027.98 384.102,-1018.71 382.873,-1010.11"/>
<polygon fill="black" stroke="black" points="386.323,-1009.51 381.443,-1000.1 379.393,-1010.5 386.323,-1009.51"/>
</g>
<!-- 6f5068d9&#45;f081&#45;421b&#45;a7a5&#45;3c85d52f05c1__gridpack&#45;&gt;06d79dc3&#45;21ca&#45;4380&#45;b759&#45;86f31aa40e79 -->
<g id="edge31" class="edge"><title>6f5068d9&#45;f081&#45;421b&#45;a7a5&#45;3c85d52f05c1__gridpack&#45;&gt;06d79dc3&#45;21ca&#45;4380&#45;b759&#45;86f31aa40e79</title>
<path fill="none" stroke="black" d="M351.747,-967.234C309.029,-945.658 227.909,-904.684 196.185,-888.66"/>
<polygon fill="black" stroke="black" points="197.671,-885.489 187.167,-884.105 194.515,-891.738 197.671,-885.489"/>
</g>
<!-- 6f5068d9&#45;f081&#45;421b&#45;a7a5&#45;3c85d52f05c1__gridpack&#45;&gt;9ba61a94&#45;9581&#45;4a0a&#45;9e90&#45;e5575d7ab8ab -->
<g id="edge34" class="edge"><title>6f5068d9&#45;f081&#45;421b&#45;a7a5&#45;3c85d52f05c1__gridpack&#45;&gt;9ba61a94&#45;9581&#45;4a0a&#45;9e90&#45;e5575d7ab8ab</title>
<path fill="none" stroke="black" d="M379,-963.756C379,-945.396 379,-916.551 379,-898.486"/>
<polygon fill="black" stroke="black" points="382.5,-898.391 379,-888.391 375.5,-898.391 382.5,-898.391"/>
</g>
<!-- 00cd9275&#45;dc9c&#45;4b86&#45;9ee4&#45;21d76d4f4ec9 -->
<g id="node11" class="node"><title>00cd9275&#45;dc9c&#45;4b86&#45;9ee4&#45;21d76d4f4ec9</title>
<polygon fill="none" stroke="blue" points="243.245,-764 156.755,-764 156.755,-728 243.245,-728 243.245,-764"/>
<text text-anchor="middle" x="200" y="-741.8" font-family="Times,serif" font-size="14.00">madevent[0]</text>
</g>
<!-- 00cd9275&#45;dc9c&#45;4b86&#45;9ee4&#45;21d76d4f4ec9__lhefile -->
<g id="node12" class="node"><title>00cd9275&#45;dc9c&#45;4b86&#45;9ee4&#45;21d76d4f4ec9__lhefile</title>
<ellipse fill="none" stroke="red" cx="202" cy="-674" rx="38.2024" ry="18"/>
<text text-anchor="middle" x="202" y="-669.8" font-family="Times,serif" font-size="14.00">[lhefile]</text>
</g>
<!-- 00cd9275&#45;dc9c&#45;4b86&#45;9ee4&#45;21d76d4f4ec9&#45;&gt;00cd9275&#45;dc9c&#45;4b86&#45;9ee4&#45;21d76d4f4ec9__lhefile -->
<g id="edge9" class="edge"><title>00cd9275&#45;dc9c&#45;4b86&#45;9ee4&#45;21d76d4f4ec9&#45;&gt;00cd9275&#45;dc9c&#45;4b86&#45;9ee4&#45;21d76d4f4ec9__lhefile</title>
<path fill="none" stroke="black" d="M200.494,-727.697C200.715,-719.983 200.98,-710.712 201.225,-702.112"/>
<polygon fill="black" stroke="black" points="204.724,-702.2 201.511,-692.104 197.727,-702 204.724,-702.2"/>
</g>
<!-- db54e21b&#45;327d&#45;4e19&#45;b284&#45;d75d468052f4 -->
<g id="node21" class="node"><title>db54e21b&#45;327d&#45;4e19&#45;b284&#45;d75d468052f4</title>
<polygon fill="none" stroke="blue" points="235.818,-610 168.182,-610 168.182,-574 235.818,-574 235.818,-610"/>
<text text-anchor="middle" x="202" y="-587.8" font-family="Times,serif" font-size="14.00">pythia[0]</text>
</g>
<!-- 00cd9275&#45;dc9c&#45;4b86&#45;9ee4&#45;21d76d4f4ec9__lhefile&#45;&gt;db54e21b&#45;327d&#45;4e19&#45;b284&#45;d75d468052f4 -->
<g id="edge39" class="edge"><title>00cd9275&#45;dc9c&#45;4b86&#45;9ee4&#45;21d76d4f4ec9__lhefile&#45;&gt;db54e21b&#45;327d&#45;4e19&#45;b284&#45;d75d468052f4</title>
<path fill="none" stroke="black" d="M202,-655.641C202,-645.297 202,-631.941 202,-620.221"/>
<polygon fill="black" stroke="black" points="205.5,-620.05 202,-610.05 198.5,-620.05 205.5,-620.05"/>
</g>
<!-- 3fa5bc45&#45;db83&#45;4999&#45;b1ec&#45;3fb4ee53ab77 -->
<g id="node13" class="node"><title>3fa5bc45&#45;db83&#45;4999&#45;b1ec&#45;3fb4ee53ab77</title>
<polygon fill="none" stroke="blue" points="265.929,-302 188.071,-302 188.071,-266 265.929,-266 265.929,-302"/>
<text text-anchor="middle" x="227" y="-279.8" font-family="Times,serif" font-size="14.00">analysis[0]</text>
</g>
<!-- 3fa5bc45&#45;db83&#45;4999&#45;b1ec&#45;3fb4ee53ab77__analysis_output -->
<g id="node14" class="node"><title>3fa5bc45&#45;db83&#45;4999&#45;b1ec&#45;3fb4ee53ab77__analysis_output</title>
<ellipse fill="none" stroke="red" cx="231" cy="-212" rx="71.5204" ry="18"/>
<text text-anchor="middle" x="231" y="-207.8" font-family="Times,serif" font-size="14.00">[analysis_output]</text>
</g>
<!-- 3fa5bc45&#45;db83&#45;4999&#45;b1ec&#45;3fb4ee53ab77&#45;&gt;3fa5bc45&#45;db83&#45;4999&#45;b1ec&#45;3fb4ee53ab77__analysis_output -->
<g id="edge10" class="edge"><title>3fa5bc45&#45;db83&#45;4999&#45;b1ec&#45;3fb4ee53ab77&#45;&gt;3fa5bc45&#45;db83&#45;4999&#45;b1ec&#45;3fb4ee53ab77__analysis_output</title>
<path fill="none" stroke="black" d="M227.989,-265.697C228.43,-257.983 228.959,-248.712 229.451,-240.112"/>
<polygon fill="black" stroke="black" points="232.946,-240.288 230.023,-230.104 225.958,-239.888 232.946,-240.288"/>
</g>
<!-- d25fb13d&#45;aebd&#45;446c&#45;aed8&#45;703ba4eb0d39 -->
<g id="node37" class="node"><title>d25fb13d&#45;aebd&#45;446c&#45;aed8&#45;703ba4eb0d39</title>
<polygon fill="none" stroke="blue" points="384.61,-132 295.39,-132 295.39,-96 384.61,-96 384.61,-132"/>
<text text-anchor="middle" x="340" y="-109.8" font-family="Times,serif" font-size="14.00">rootmerge[0]</text>
</g>
<!-- 3fa5bc45&#45;db83&#45;4999&#45;b1ec&#45;3fb4ee53ab77__analysis_output&#45;&gt;d25fb13d&#45;aebd&#45;446c&#45;aed8&#45;703ba4eb0d39 -->
<g id="edge26" class="edge"><title>3fa5bc45&#45;db83&#45;4999&#45;b1ec&#45;3fb4ee53ab77__analysis_output&#45;&gt;d25fb13d&#45;aebd&#45;446c&#45;aed8&#45;703ba4eb0d39</title>
<path fill="none" stroke="black" d="M249.986,-194.278C267.356,-178.98 293.249,-156.176 312.811,-138.946"/>
<polygon fill="black" stroke="black" points="315.306,-141.413 320.497,-132.177 310.68,-136.16 315.306,-141.413"/>
</g>
<!-- 06d79dc3&#45;21ca&#45;4380&#45;b759&#45;86f31aa40e79__nevents -->
<g id="node16" class="node"><title>06d79dc3&#45;21ca&#45;4380&#45;b759&#45;86f31aa40e79__nevents</title>
<ellipse fill="none" stroke="red" cx="75" cy="-820" rx="43.0215" ry="18"/>
<text text-anchor="middle" x="75" y="-815.8" font-family="Times,serif" font-size="14.00">[nevents]</text>
</g>
<!-- 06d79dc3&#45;21ca&#45;4380&#45;b759&#45;86f31aa40e79&#45;&gt;06d79dc3&#45;21ca&#45;4380&#45;b759&#45;86f31aa40e79__nevents -->
<g id="edge11" class="edge"><title>06d79dc3&#45;21ca&#45;4380&#45;b759&#45;86f31aa40e79&#45;&gt;06d79dc3&#45;21ca&#45;4380&#45;b759&#45;86f31aa40e79__nevents</title>
<path fill="none" stroke="black" d="M178.898,-877.759C167.574,-871.573 135.014,-853.786 109.331,-839.755"/>
<polygon fill="black" stroke="black" points="110.686,-836.507 100.232,-834.784 107.33,-842.65 110.686,-836.507"/>
</g>
<!-- 06d79dc3&#45;21ca&#45;4380&#45;b759&#45;86f31aa40e79__gridpack -->
<g id="node17" class="node"><title>06d79dc3&#45;21ca&#45;4380&#45;b759&#45;86f31aa40e79__gridpack</title>
<ellipse fill="none" stroke="red" cx="183" cy="-820" rx="46.8719" ry="18"/>
<text text-anchor="middle" x="183" y="-815.8" font-family="Times,serif" font-size="14.00">[gridpack]</text>
</g>
<!-- 06d79dc3&#45;21ca&#45;4380&#45;b759&#45;86f31aa40e79&#45;&gt;06d79dc3&#45;21ca&#45;4380&#45;b759&#45;86f31aa40e79__gridpack -->
<g id="edge12" class="edge"><title>06d79dc3&#45;21ca&#45;4380&#45;b759&#45;86f31aa40e79&#45;&gt;06d79dc3&#45;21ca&#45;4380&#45;b759&#45;86f31aa40e79__gridpack</title>
<path fill="none" stroke="black" d="M183,-873.686C183,-867.486 183,-857.595 183,-848.048"/>
<polygon fill="black" stroke="black" points="186.5,-848.016 183,-838.016 179.5,-848.016 186.5,-848.016"/>
</g>
<!-- 06d79dc3&#45;21ca&#45;4380&#45;b759&#45;86f31aa40e79__seed -->
<g id="node18" class="node"><title>06d79dc3&#45;21ca&#45;4380&#45;b759&#45;86f31aa40e79__seed</title>
<ellipse fill="none" stroke="red" cx="280" cy="-820" rx="31.9219" ry="18"/>
<text text-anchor="middle" x="280" y="-815.8" font-family="Times,serif" font-size="14.00">[seed]</text>
</g>
<!-- 06d79dc3&#45;21ca&#45;4380&#45;b759&#45;86f31aa40e79&#45;&gt;06d79dc3&#45;21ca&#45;4380&#45;b759&#45;86f31aa40e79__seed -->
<g id="edge13" class="edge"><title>06d79dc3&#45;21ca&#45;4380&#45;b759&#45;86f31aa40e79&#45;&gt;06d79dc3&#45;21ca&#45;4380&#45;b759&#45;86f31aa40e79__seed</title>
<path fill="none" stroke="black" d="M187.168,-877.465C197.924,-870.922 227.376,-853.009 250.25,-839.095"/>
<polygon fill="black" stroke="black" points="252.228,-841.989 258.952,-833.802 248.59,-836.009 252.228,-841.989"/>
</g>
<!-- 06d79dc3&#45;21ca&#45;4380&#45;b759&#45;86f31aa40e79__nevents&#45;&gt;00cd9275&#45;dc9c&#45;4b86&#45;9ee4&#45;21d76d4f4ec9 -->
<g id="edge36" class="edge"><title>06d79dc3&#45;21ca&#45;4380&#45;b759&#45;86f31aa40e79__nevents&#45;&gt;00cd9275&#45;dc9c&#45;4b86&#45;9ee4&#45;21d76d4f4ec9</title>
<path fill="none" stroke="black" d="M99.398,-804.947C117.099,-794.751 141.393,-780.758 161.673,-769.076"/>
<polygon fill="black" stroke="black" points="163.46,-772.086 170.378,-764.062 159.966,-766.021 163.46,-772.086"/>
</g>
<!-- 06d79dc3&#45;21ca&#45;4380&#45;b759&#45;86f31aa40e79__gridpack&#45;&gt;00cd9275&#45;dc9c&#45;4b86&#45;9ee4&#45;21d76d4f4ec9 -->
<g id="edge37" class="edge"><title>06d79dc3&#45;21ca&#45;4380&#45;b759&#45;86f31aa40e79__gridpack&#45;&gt;00cd9275&#45;dc9c&#45;4b86&#45;9ee4&#45;21d76d4f4ec9</title>
<path fill="none" stroke="black" d="M187.029,-801.937C188.969,-793.719 191.344,-783.66 193.529,-774.406"/>
<polygon fill="black" stroke="black" points="196.99,-774.977 195.882,-764.441 190.178,-773.369 196.99,-774.977"/>
</g>
<!-- 06d79dc3&#45;21ca&#45;4380&#45;b759&#45;86f31aa40e79__seed&#45;&gt;00cd9275&#45;dc9c&#45;4b86&#45;9ee4&#45;21d76d4f4ec9 -->
<g id="edge38" class="edge"><title>06d79dc3&#45;21ca&#45;4380&#45;b759&#45;86f31aa40e79__seed&#45;&gt;00cd9275&#45;dc9c&#45;4b86&#45;9ee4&#45;21d76d4f4ec9</title>
<path fill="none" stroke="black" d="M263.811,-804.43C253.174,-794.857 239.006,-782.105 226.722,-771.05"/>
<polygon fill="black" stroke="black" points="228.752,-768.168 218.978,-764.08 224.069,-773.371 228.752,-768.168"/>
</g>
<!-- 01700e88&#45;86cd&#45;42dd&#45;b60d&#45;d24d89f11241 -->
<g id="node19" class="node"><title>01700e88&#45;86cd&#45;42dd&#45;b60d&#45;d24d89f11241</title>
<polygon fill="none" stroke="blue" points="242.59,-456 167.41,-456 167.41,-420 242.59,-420 242.59,-456"/>
<text text-anchor="middle" x="205" y="-433.8" font-family="Times,serif" font-size="14.00">delphes[0]</text>
</g>
<!-- 01700e88&#45;86cd&#45;42dd&#45;b60d&#45;d24d89f11241__delphesoutput -->
<g id="node20" class="node"><title>01700e88&#45;86cd&#45;42dd&#45;b60d&#45;d24d89f11241__delphesoutput</title>
<ellipse fill="none" stroke="red" cx="219" cy="-366" rx="65.7235" ry="18"/>
<text text-anchor="middle" x="219" y="-361.8" font-family="Times,serif" font-size="14.00">[delphesoutput]</text>
</g>
<!-- 01700e88&#45;86cd&#45;42dd&#45;b60d&#45;d24d89f11241&#45;&gt;01700e88&#45;86cd&#45;42dd&#45;b60d&#45;d24d89f11241__delphesoutput -->
<g id="edge14" class="edge"><title>01700e88&#45;86cd&#45;42dd&#45;b60d&#45;d24d89f11241&#45;&gt;01700e88&#45;86cd&#45;42dd&#45;b60d&#45;d24d89f11241__delphesoutput</title>
<path fill="none" stroke="black" d="M208.461,-419.697C210.003,-411.983 211.858,-402.712 213.578,-394.112"/>
<polygon fill="black" stroke="black" points="217.05,-394.597 215.579,-384.104 210.186,-393.224 217.05,-394.597"/>
</g>
<!-- 01700e88&#45;86cd&#45;42dd&#45;b60d&#45;d24d89f11241__delphesoutput&#45;&gt;3fa5bc45&#45;db83&#45;4999&#45;b1ec&#45;3fb4ee53ab77 -->
<g id="edge49" class="edge"><title>01700e88&#45;86cd&#45;42dd&#45;b60d&#45;d24d89f11241__delphesoutput&#45;&gt;3fa5bc45&#45;db83&#45;4999&#45;b1ec&#45;3fb4ee53ab77</title>
<path fill="none" stroke="black" d="M220.736,-347.641C221.77,-337.297 223.106,-323.941 224.278,-312.221"/>
<polygon fill="black" stroke="black" points="227.782,-312.349 225.295,-302.05 220.817,-311.652 227.782,-312.349"/>
</g>
<!-- db54e21b&#45;327d&#45;4e19&#45;b284&#45;d75d468052f4__hepmcfile -->
<g id="node22" class="node"><title>db54e21b&#45;327d&#45;4e19&#45;b284&#45;d75d468052f4__hepmcfile</title>
<ellipse fill="none" stroke="red" cx="203" cy="-520" rx="50.7397" ry="18"/>
<text text-anchor="middle" x="203" y="-515.8" font-family="Times,serif" font-size="14.00">[hepmcfile]</text>
</g>
<!-- db54e21b&#45;327d&#45;4e19&#45;b284&#45;d75d468052f4&#45;&gt;db54e21b&#45;327d&#45;4e19&#45;b284&#45;d75d468052f4__hepmcfile -->
<g id="edge15" class="edge"><title>db54e21b&#45;327d&#45;4e19&#45;b284&#45;d75d468052f4&#45;&gt;db54e21b&#45;327d&#45;4e19&#45;b284&#45;d75d468052f4__hepmcfile</title>
<path fill="none" stroke="black" d="M202.247,-573.697C202.357,-565.983 202.49,-556.712 202.613,-548.112"/>
<polygon fill="black" stroke="black" points="206.112,-548.153 202.756,-538.104 199.113,-548.053 206.112,-548.153"/>
</g>
<!-- db54e21b&#45;327d&#45;4e19&#45;b284&#45;d75d468052f4__hepmcfile&#45;&gt;01700e88&#45;86cd&#45;42dd&#45;b60d&#45;d24d89f11241 -->
<g id="edge47" class="edge"><title>db54e21b&#45;327d&#45;4e19&#45;b284&#45;d75d468052f4__hepmcfile&#45;&gt;01700e88&#45;86cd&#45;42dd&#45;b60d&#45;d24d89f11241</title>
<path fill="none" stroke="black" d="M203.434,-501.641C203.693,-491.297 204.026,-477.941 204.319,-466.221"/>
<polygon fill="black" stroke="black" points="207.823,-466.134 204.574,-456.05 200.825,-465.959 207.823,-466.134"/>
</g>
<!-- 04db9e8f&#45;698d&#45;45ff&#45;b539&#45;673e890a6306 -->
<g id="node23" class="node"><title>04db9e8f&#45;698d&#45;45ff&#45;b539&#45;673e890a6306</title>
<polygon fill="none" stroke="blue" points="529.245,-764 442.755,-764 442.755,-728 529.245,-728 529.245,-764"/>
<text text-anchor="middle" x="486" y="-741.8" font-family="Times,serif" font-size="14.00">madevent[0]</text>
</g>
<!-- 04db9e8f&#45;698d&#45;45ff&#45;b539&#45;673e890a6306__lhefile -->
<g id="node24" class="node"><title>04db9e8f&#45;698d&#45;45ff&#45;b539&#45;673e890a6306__lhefile</title>
<ellipse fill="none" stroke="red" cx="483" cy="-674" rx="38.2024" ry="18"/>
<text text-anchor="middle" x="483" y="-669.8" font-family="Times,serif" font-size="14.00">[lhefile]</text>
</g>
<!-- 04db9e8f&#45;698d&#45;45ff&#45;b539&#45;673e890a6306&#45;&gt;04db9e8f&#45;698d&#45;45ff&#45;b539&#45;673e890a6306__lhefile -->
<g id="edge16" class="edge"><title>04db9e8f&#45;698d&#45;45ff&#45;b539&#45;673e890a6306&#45;&gt;04db9e8f&#45;698d&#45;45ff&#45;b539&#45;673e890a6306__lhefile</title>
<path fill="none" stroke="black" d="M485.258,-727.697C484.928,-719.983 484.531,-710.712 484.162,-702.112"/>
<polygon fill="black" stroke="black" points="487.658,-701.945 483.733,-692.104 480.665,-702.245 487.658,-701.945"/>
</g>
<!-- c470372d&#45;046d&#45;4456&#45;9a4c&#45;e31d30d1ed19 -->
<g id="node33" class="node"><title>c470372d&#45;046d&#45;4456&#45;9a4c&#45;e31d30d1ed19</title>
<polygon fill="none" stroke="blue" points="515.818,-610 448.182,-610 448.182,-574 515.818,-574 515.818,-610"/>
<text text-anchor="middle" x="482" y="-587.8" font-family="Times,serif" font-size="14.00">pythia[0]</text>
</g>
<!-- 04db9e8f&#45;698d&#45;45ff&#45;b539&#45;673e890a6306__lhefile&#45;&gt;c470372d&#45;046d&#45;4456&#45;9a4c&#45;e31d30d1ed19 -->
<g id="edge29" class="edge"><title>04db9e8f&#45;698d&#45;45ff&#45;b539&#45;673e890a6306__lhefile&#45;&gt;c470372d&#45;046d&#45;4456&#45;9a4c&#45;e31d30d1ed19</title>
<path fill="none" stroke="black" d="M482.783,-655.641C482.654,-645.297 482.487,-631.941 482.34,-620.221"/>
<polygon fill="black" stroke="black" points="485.838,-620.006 482.213,-610.05 478.838,-620.093 485.838,-620.006"/>
</g>
<!-- ac8b1293&#45;6992&#45;431d&#45;bdf4&#45;7f7be59a6e10 -->
<g id="node25" class="node"><title>ac8b1293&#45;6992&#45;431d&#45;bdf4&#45;7f7be59a6e10</title>
<polygon fill="none" stroke="blue" points="496.929,-302 419.071,-302 419.071,-266 496.929,-266 496.929,-302"/>
<text text-anchor="middle" x="458" y="-279.8" font-family="Times,serif" font-size="14.00">analysis[0]</text>
</g>
<!-- ac8b1293&#45;6992&#45;431d&#45;bdf4&#45;7f7be59a6e10__analysis_output -->
<g id="node26" class="node"><title>ac8b1293&#45;6992&#45;431d&#45;bdf4&#45;7f7be59a6e10__analysis_output</title>
<ellipse fill="none" stroke="red" cx="450" cy="-212" rx="71.5204" ry="18"/>
<text text-anchor="middle" x="450" y="-207.8" font-family="Times,serif" font-size="14.00">[analysis_output]</text>
</g>
<!-- ac8b1293&#45;6992&#45;431d&#45;bdf4&#45;7f7be59a6e10&#45;&gt;ac8b1293&#45;6992&#45;431d&#45;bdf4&#45;7f7be59a6e10__analysis_output -->
<g id="edge17" class="edge"><title>ac8b1293&#45;6992&#45;431d&#45;bdf4&#45;7f7be59a6e10&#45;&gt;ac8b1293&#45;6992&#45;431d&#45;bdf4&#45;7f7be59a6e10__analysis_output</title>
<path fill="none" stroke="black" d="M456.022,-265.697C455.141,-257.983 454.081,-248.712 453.099,-240.112"/>
<polygon fill="black" stroke="black" points="456.568,-239.642 451.955,-230.104 449.613,-240.437 456.568,-239.642"/>
</g>
<!-- ac8b1293&#45;6992&#45;431d&#45;bdf4&#45;7f7be59a6e10__analysis_output&#45;&gt;d25fb13d&#45;aebd&#45;446c&#45;aed8&#45;703ba4eb0d39 -->
<g id="edge27" class="edge"><title>ac8b1293&#45;6992&#45;431d&#45;bdf4&#45;7f7be59a6e10__analysis_output&#45;&gt;d25fb13d&#45;aebd&#45;446c&#45;aed8&#45;703ba4eb0d39</title>
<path fill="none" stroke="black" d="M430.839,-194.278C413.311,-178.98 387.18,-156.176 367.439,-138.946"/>
<polygon fill="black" stroke="black" points="369.517,-136.115 359.682,-132.177 364.915,-141.389 369.517,-136.115"/>
</g>
<!-- 9ba61a94&#45;9581&#45;4a0a&#45;9e90&#45;e5575d7ab8ab__nevents -->
<g id="node28" class="node"><title>9ba61a94&#45;9581&#45;4a0a&#45;9e90&#45;e5575d7ab8ab__nevents</title>
<ellipse fill="none" stroke="red" cx="379" cy="-820" rx="43.0215" ry="18"/>
<text text-anchor="middle" x="379" y="-815.8" font-family="Times,serif" font-size="14.00">[nevents]</text>
</g>
<!-- 9ba61a94&#45;9581&#45;4a0a&#45;9e90&#45;e5575d7ab8ab&#45;&gt;9ba61a94&#45;9581&#45;4a0a&#45;9e90&#45;e5575d7ab8ab__nevents -->
<g id="edge18" class="edge"><title>9ba61a94&#45;9581&#45;4a0a&#45;9e90&#45;e5575d7ab8ab&#45;&gt;9ba61a94&#45;9581&#45;4a0a&#45;9e90&#45;e5575d7ab8ab__nevents</title>
<path fill="none" stroke="black" d="M379,-873.686C379,-867.486 379,-857.595 379,-848.048"/>
<polygon fill="black" stroke="black" points="382.5,-848.016 379,-838.016 375.5,-848.016 382.5,-848.016"/>
</g>
<!-- 9ba61a94&#45;9581&#45;4a0a&#45;9e90&#45;e5575d7ab8ab__gridpack -->
<g id="node29" class="node"><title>9ba61a94&#45;9581&#45;4a0a&#45;9e90&#45;e5575d7ab8ab__gridpack</title>
<ellipse fill="none" stroke="red" cx="487" cy="-820" rx="46.8719" ry="18"/>
<text text-anchor="middle" x="487" y="-815.8" font-family="Times,serif" font-size="14.00">[gridpack]</text>
</g>
<!-- 9ba61a94&#45;9581&#45;4a0a&#45;9e90&#45;e5575d7ab8ab&#45;&gt;9ba61a94&#45;9581&#45;4a0a&#45;9e90&#45;e5575d7ab8ab__gridpack -->
<g id="edge19" class="edge"><title>9ba61a94&#45;9581&#45;4a0a&#45;9e90&#45;e5575d7ab8ab&#45;&gt;9ba61a94&#45;9581&#45;4a0a&#45;9e90&#45;e5575d7ab8ab__gridpack</title>
<path fill="none" stroke="black" d="M383.102,-877.759C394.289,-871.648 426.199,-854.215 451.732,-840.267"/>
<polygon fill="black" stroke="black" points="453.702,-843.179 460.8,-835.313 450.346,-837.036 453.702,-843.179"/>
</g>
<!-- 9ba61a94&#45;9581&#45;4a0a&#45;9e90&#45;e5575d7ab8ab__seed -->
<g id="node30" class="node"><title>9ba61a94&#45;9581&#45;4a0a&#45;9e90&#45;e5575d7ab8ab__seed</title>
<ellipse fill="none" stroke="red" cx="584" cy="-820" rx="31.9219" ry="18"/>
<text text-anchor="middle" x="584" y="-815.8" font-family="Times,serif" font-size="14.00">[seed]</text>
</g>
<!-- 9ba61a94&#45;9581&#45;4a0a&#45;9e90&#45;e5575d7ab8ab&#45;&gt;9ba61a94&#45;9581&#45;4a0a&#45;9e90&#45;e5575d7ab8ab__seed -->
<g id="edge20" class="edge"><title>9ba61a94&#45;9581&#45;4a0a&#45;9e90&#45;e5575d7ab8ab&#45;&gt;9ba61a94&#45;9581&#45;4a0a&#45;9e90&#45;e5575d7ab8ab__seed</title>
<path fill="none" stroke="black" d="M384.178,-878.955C404.63,-874.771 481.66,-858.456 543,-838 545.282,-837.239 547.617,-836.411 549.959,-835.543"/>
<polygon fill="black" stroke="black" points="551.453,-838.717 559.499,-831.825 548.911,-832.195 551.453,-838.717"/>
</g>
<!-- 9ba61a94&#45;9581&#45;4a0a&#45;9e90&#45;e5575d7ab8ab__nevents&#45;&gt;04db9e8f&#45;698d&#45;45ff&#45;b539&#45;673e890a6306 -->
<g id="edge40" class="edge"><title>9ba61a94&#45;9581&#45;4a0a&#45;9e90&#45;e5575d7ab8ab__nevents&#45;&gt;04db9e8f&#45;698d&#45;45ff&#45;b539&#45;673e890a6306</title>
<path fill="none" stroke="black" d="M400.653,-804.43C415.421,-794.492 435.28,-781.129 452.126,-769.794"/>
<polygon fill="black" stroke="black" points="454.274,-772.567 460.617,-764.08 450.367,-766.759 454.274,-772.567"/>
</g>
<!-- 9ba61a94&#45;9581&#45;4a0a&#45;9e90&#45;e5575d7ab8ab__gridpack&#45;&gt;04db9e8f&#45;698d&#45;45ff&#45;b539&#45;673e890a6306 -->
<g id="edge41" class="edge"><title>9ba61a94&#45;9581&#45;4a0a&#45;9e90&#45;e5575d7ab8ab__gridpack&#45;&gt;04db9e8f&#45;698d&#45;45ff&#45;b539&#45;673e890a6306</title>
<path fill="none" stroke="black" d="M486.763,-801.937C486.65,-793.807 486.512,-783.876 486.385,-774.705"/>
<polygon fill="black" stroke="black" points="489.881,-774.391 486.242,-764.441 482.882,-774.488 489.881,-774.391"/>
</g>
<!-- 9ba61a94&#45;9581&#45;4a0a&#45;9e90&#45;e5575d7ab8ab__seed&#45;&gt;04db9e8f&#45;698d&#45;45ff&#45;b539&#45;673e890a6306 -->
<g id="edge42" class="edge"><title>9ba61a94&#45;9581&#45;4a0a&#45;9e90&#45;e5575d7ab8ab__seed&#45;&gt;04db9e8f&#45;698d&#45;45ff&#45;b539&#45;673e890a6306</title>
<path fill="none" stroke="black" d="M565.105,-805.118C551.683,-795.257 533.341,-781.781 517.698,-770.288"/>
<polygon fill="black" stroke="black" points="519.465,-767.243 509.333,-764.143 515.32,-772.884 519.465,-767.243"/>
</g>
<!-- 5cedba8d&#45;19d3&#45;439a&#45;9577&#45;a8f3d1f11434 -->
<g id="node31" class="node"><title>5cedba8d&#45;19d3&#45;439a&#45;9577&#45;a8f3d1f11434</title>
<polygon fill="none" stroke="blue" points="514.59,-456 439.41,-456 439.41,-420 514.59,-420 514.59,-456"/>
<text text-anchor="middle" x="477" y="-433.8" font-family="Times,serif" font-size="14.00">delphes[0]</text>
</g>
<!-- 5cedba8d&#45;19d3&#45;439a&#45;9577&#45;a8f3d1f11434__delphesoutput -->
<g id="node32" class="node"><title>5cedba8d&#45;19d3&#45;439a&#45;9577&#45;a8f3d1f11434__delphesoutput</title>
<ellipse fill="none" stroke="red" cx="475" cy="-366" rx="65.7235" ry="18"/>
<text text-anchor="middle" x="475" y="-361.8" font-family="Times,serif" font-size="14.00">[delphesoutput]</text>
</g>
<!-- 5cedba8d&#45;19d3&#45;439a&#45;9577&#45;a8f3d1f11434&#45;&gt;5cedba8d&#45;19d3&#45;439a&#45;9577&#45;a8f3d1f11434__delphesoutput -->
<g id="edge21" class="edge"><title>5cedba8d&#45;19d3&#45;439a&#45;9577&#45;a8f3d1f11434&#45;&gt;5cedba8d&#45;19d3&#45;439a&#45;9577&#45;a8f3d1f11434__delphesoutput</title>
<path fill="none" stroke="black" d="M476.506,-419.697C476.285,-411.983 476.02,-402.712 475.775,-394.112"/>
<polygon fill="black" stroke="black" points="479.273,-394 475.489,-384.104 472.276,-394.2 479.273,-394"/>
</g>
<!-- 5cedba8d&#45;19d3&#45;439a&#45;9577&#45;a8f3d1f11434__delphesoutput&#45;&gt;ac8b1293&#45;6992&#45;431d&#45;bdf4&#45;7f7be59a6e10 -->
<g id="edge25" class="edge"><title>5cedba8d&#45;19d3&#45;439a&#45;9577&#45;a8f3d1f11434__delphesoutput&#45;&gt;ac8b1293&#45;6992&#45;431d&#45;bdf4&#45;7f7be59a6e10</title>
<path fill="none" stroke="black" d="M471.311,-347.641C469.091,-337.192 466.217,-323.668 463.708,-311.862"/>
<polygon fill="black" stroke="black" points="467.125,-311.104 461.623,-302.05 460.278,-312.559 467.125,-311.104"/>
</g>
<!-- c470372d&#45;046d&#45;4456&#45;9a4c&#45;e31d30d1ed19__hepmcfile -->
<g id="node34" class="node"><title>c470372d&#45;046d&#45;4456&#45;9a4c&#45;e31d30d1ed19__hepmcfile</title>
<ellipse fill="none" stroke="red" cx="481" cy="-520" rx="50.7397" ry="18"/>
<text text-anchor="middle" x="481" y="-515.8" font-family="Times,serif" font-size="14.00">[hepmcfile]</text>
</g>
<!-- c470372d&#45;046d&#45;4456&#45;9a4c&#45;e31d30d1ed19&#45;&gt;c470372d&#45;046d&#45;4456&#45;9a4c&#45;e31d30d1ed19__hepmcfile -->
<g id="edge22" class="edge"><title>c470372d&#45;046d&#45;4456&#45;9a4c&#45;e31d30d1ed19&#45;&gt;c470372d&#45;046d&#45;4456&#45;9a4c&#45;e31d30d1ed19__hepmcfile</title>
<path fill="none" stroke="black" d="M481.753,-573.697C481.643,-565.983 481.51,-556.712 481.387,-548.112"/>
<polygon fill="black" stroke="black" points="484.887,-548.053 481.244,-538.104 477.888,-548.153 484.887,-548.053"/>
</g>
<!-- c470372d&#45;046d&#45;4456&#45;9a4c&#45;e31d30d1ed19__hepmcfile&#45;&gt;5cedba8d&#45;19d3&#45;439a&#45;9577&#45;a8f3d1f11434 -->
<g id="edge28" class="edge"><title>c470372d&#45;046d&#45;4456&#45;9a4c&#45;e31d30d1ed19__hepmcfile&#45;&gt;5cedba8d&#45;19d3&#45;439a&#45;9577&#45;a8f3d1f11434</title>
<path fill="none" stroke="black" d="M480.132,-501.641C479.615,-491.297 478.947,-477.941 478.361,-466.221"/>
<polygon fill="black" stroke="black" points="481.848,-465.863 477.853,-456.05 474.856,-466.212 481.848,-465.863"/>
</g>
<!-- 94cd0bd6&#45;3f51&#45;4b86&#45;be12&#45;ca1e87e07917__param_card -->
<g id="node36" class="node"><title>94cd0bd6&#45;3f51&#45;4b86&#45;be12&#45;ca1e87e07917__param_card</title>
<ellipse fill="none" stroke="red" cx="407" cy="-1136" rx="57.9632" ry="18"/>
<text text-anchor="middle" x="407" y="-1131.8" font-family="Times,serif" font-size="14.00">[param_card]</text>
</g>
<!-- 94cd0bd6&#45;3f51&#45;4b86&#45;be12&#45;ca1e87e07917&#45;&gt;94cd0bd6&#45;3f51&#45;4b86&#45;be12&#45;ca1e87e07917__param_card -->
<g id="edge23" class="edge"><title>94cd0bd6&#45;3f51&#45;4b86&#45;be12&#45;ca1e87e07917&#45;&gt;94cd0bd6&#45;3f51&#45;4b86&#45;be12&#45;ca1e87e07917__param_card</title>
<path fill="none" stroke="black" d="M415.281,-1189.7C414.069,-1181.98 412.612,-1172.71 411.261,-1164.11"/>
<polygon fill="black" stroke="black" points="414.698,-1163.44 409.688,-1154.1 407.783,-1164.53 414.698,-1163.44"/>
</g>
<!-- 94cd0bd6&#45;3f51&#45;4b86&#45;be12&#45;ca1e87e07917__param_card&#45;&gt;6f5068d9&#45;f081&#45;421b&#45;a7a5&#45;3c85d52f05c1 -->
<g id="edge48" class="edge"><title>94cd0bd6&#45;3f51&#45;4b86&#45;be12&#45;ca1e87e07917__param_card&#45;&gt;6f5068d9&#45;f081&#45;421b&#45;a7a5&#45;3c85d52f05c1</title>
<path fill="none" stroke="black" d="M403.183,-1118.03C400.836,-1107.6 397.776,-1094.01 395.1,-1082.11"/>
<polygon fill="black" stroke="black" points="398.484,-1081.21 392.874,-1072.22 391.654,-1082.74 398.484,-1081.21"/>
</g>
<!-- d25fb13d&#45;aebd&#45;446c&#45;aed8&#45;703ba4eb0d39__mergedfile -->
<g id="node38" class="node"><title>d25fb13d&#45;aebd&#45;446c&#45;aed8&#45;703ba4eb0d39__mergedfile</title>
<ellipse fill="none" stroke="red" cx="340" cy="-42" rx="53.8188" ry="18"/>
<text text-anchor="middle" x="340" y="-37.8" font-family="Times,serif" font-size="14.00">[mergedfile]</text>
</g>
<!-- d25fb13d&#45;aebd&#45;446c&#45;aed8&#45;703ba4eb0d39&#45;&gt;d25fb13d&#45;aebd&#45;446c&#45;aed8&#45;703ba4eb0d39__mergedfile -->
<g id="edge24" class="edge"><title>d25fb13d&#45;aebd&#45;446c&#45;aed8&#45;703ba4eb0d39&#45;&gt;d25fb13d&#45;aebd&#45;446c&#45;aed8&#45;703ba4eb0d39__mergedfile</title>
<path fill="none" stroke="black" d="M340,-95.6966C340,-87.9827 340,-78.7125 340,-70.1124"/>
<polygon fill="black" stroke="black" points="343.5,-70.1043 340,-60.1043 336.5,-70.1044 343.5,-70.1043"/>
</g>
</g>
</svg>
